<svg xmlns="http://www.w3.org/2000/svg" version="1.1" viewBox="-5.0 -10.0 110.0 135.0">
 <path d="m50.762 9.3789c-0.039063 0-0.074219 0.003906-0.10938 0.003906-0.35156 0.050782-0.67578 0.21094-0.92188 0.46484l-20.184 20.758c-0.44141 0.4375-0.58594 1.0859-0.375 1.668l7.4062 19.902-3.1836 5.4922-4.0156-2.3281v-10.195c0.007813-0.67188-0.41016-1.2773-1.043-1.5078-0.63281-0.23047-1.3438-0.035157-1.7695 0.48828l-7.6836 9.4141c-0.22266 0.28125-0.34375 0.63281-0.34375 0.99219v14.352c0 0.52344 0.25781 1.0156 0.69141 1.3125l29.875 20.16c0.58203 0.39062 1.3516 0.35156 1.8945-0.09375l27.703-22.559c0.30859-0.26172 0.50391-0.63281 0.55078-1.0352l2.1953-16.402c0.046875-0.41016-0.070313-0.82422-0.32422-1.1523l-9.9648-13.082c-0.42969-0.56641-1.1875-0.77734-1.8516-0.51562-0.66016 0.26562-1.0664 0.9375-0.98828 1.6445l1.1055 10.035-2.9727 11.953-1.7773 1.0781-0.80469-2 3.1797-12c0.15625-0.56641-0.015625-1.168-0.4375-1.5703l-16.867-15.637 3.0977-12.531c0.039062-0.16406 0.054688-0.33594 0.042969-0.50391l-0.46094-5.1641c-0.074219-0.85156-0.8125-1.4883-1.6641-1.4414zm7.3672 9.3945c-0.035156 0-0.066406 0-0.097656 0.003906-0.52734 0.058594-0.94531 0.46484-1.0156 0.98828l-1.0625 7.6367c-0.058594 0.49219 0.20312 0.96484 0.64844 1.1797l4.3398 2.0977c0.41797 0.20312 0.91797 0.13672 1.2656-0.17188 0.34766-0.30859 0.47656-0.79687 0.32031-1.2383l-3.293-9.7344c-0.16797-0.46484-0.61328-0.77344-1.1055-0.76172zm-28.332 2.5234c-0.070313 0-0.14062 0.003906-0.21094 0.015625-0.16797 0.035156-0.32813 0.11328-0.45703 0.23047l-8.9531 7.6094c-0.22266 0.19531-0.35156 0.47656-0.34375 0.76953 0.003907 0.29688 0.14062 0.57422 0.36719 0.75781l5.5859 4.5664c0.36719 0.27734 0.875 0.26953 1.2305-0.023438 0.35156-0.28906 0.46484-0.78516 0.26562-1.1992l-1.7539-3.2539 5.0742-7.957c0.18359-0.30078 0.19531-0.67578 0.03125-0.98828-0.16797-0.3125-0.48437-0.51172-0.83594-0.52734z"/>
<text x="0.0" y="117.5" font-size="5.0" font-weight="bold" font-family="Arbeit Regular, Helvetica, Arial-Unicode, Arial, Sans-serif" fill="#000000">Created by yode tive</text><text x="0.0" y="122.5" font-size="5.0" font-weight="bold" font-family="Arbeit Regular, Helvetica, Arial-Unicode, Arial, Sans-serif" fill="#000000">from Noun Project</text></svg>