<svg xmlns="http://www.w3.org/2000/svg" version="1.1" viewBox="-5.0 -10.0 110.0 135.0">
 <path d="m59.762 38.812-9.7617 3.5742-9.7617-3.5742-2.082-0.76953 11.262-5.0312c0.37891-0.16406 0.80859-0.16406 1.1875 0l11.262 5.0312-2.082 0.76953zm-47.262 48.918 3.2305-12.5c0.078125-0.33594 0.33203-0.60156 0.66406-0.6875 0.32812-0.097657 0.67578 0 0.90625 0.25l3.3242 3.4375 10.418-10.863v-0.003907c0.27734-0.28516 0.66406-0.44922 1.0664-0.44922s0.78906 0.16406 1.0664 0.44922c0.59766 0.625 0.59766 1.6055 0 2.2305l-10.418 10.855 3.3438 3.4805 0.003907-0.003907c0.23047 0.25781 0.32031 0.61328 0.23828 0.94922-0.074219 0.33984-0.33203 0.60938-0.66797 0.69922l-12.051 3.3633c-0.32812 0.09375-0.67969-0.007812-0.90625-0.26172-0.24219-0.25-0.33594-0.60938-0.23828-0.94531zm73.895 1.207-12.07-3.3633c-0.33594-0.089844-0.59375-0.35938-0.66797-0.69922-0.082031-0.33594 0.007812-0.69141 0.23828-0.94922l3.3438-3.4805-10.418-10.855 0.003907 0.003906c-0.59766-0.625-0.59766-1.6055 0-2.2305 0.57812-0.56641 1.5039-0.56641 2.082 0l10.418 10.863 3.3438-3.4883c0.23047-0.24609 0.57812-0.34375 0.90625-0.25 0.33203 0.089844 0.58594 0.35547 0.66406 0.6875l3.2305 12.5c0.09375 0.33594 0.003906 0.69922-0.23828 0.94922-0.22656 0.25391-0.58203 0.35547-0.90625 0.26172zm1.1055-76.98-3.2305 12.551v0.003907c-0.078125 0.33203-0.33203 0.59766-0.66406 0.6875-0.32812 0.097656-0.67969 0-0.90625-0.25l-3.3242-3.4805-10.418 10.824c-0.27344 0.27734-0.64844 0.43359-1.0391 0.43359s-0.76562-0.15625-1.043-0.43359c-0.59375-0.625-0.59375-1.6055 0-2.2305l10.418-10.855-3.3438-3.4805v0.003907c-0.23438-0.25781-0.32422-0.61328-0.24219-0.94922 0.074219-0.33984 0.33203-0.60938 0.66797-0.69922l12.051-3.3633c0.32812-0.09375 0.67969 0.007812 0.90625 0.26172 0.24609 0.25 0.33594 0.60938 0.24219 0.94531zm-73.875-1.207 12.051 3.3633c0.33594 0.089844 0.59375 0.35938 0.66797 0.69922 0.082031 0.33594-0.007812 0.69141-0.23828 0.94922l-3.3438 3.4805 10.418 10.855-0.003907-0.003906c0.59766 0.625 0.59766 1.6055 0 2.2305-0.27734 0.29297-0.66406 0.45703-1.0664 0.45703s-0.78906-0.16406-1.0664-0.45703l-10.418-10.855-3.3438 3.5312c-0.22656 0.25391-0.58203 0.35156-0.90625 0.25-0.33203-0.085938-0.58984-0.35156-0.66797-0.6875l-3.2305-12.5h0.003907c-0.097657-0.33594-0.003907-0.69922 0.23828-0.94922 0.22656-0.25391 0.57812-0.35547 0.90625-0.25781zm4.6055 37.676c-0.63672-3.1758-3.4062-5.4805-6.6484-5.5312-3.7734 0.20703-6.7266 3.3242-6.7266 7.1055s2.9531 6.8984 6.7266 7.1055c3.2422-0.050781 6.0117-2.3555 6.6484-5.5312h11.977c0.79297-0.09375 1.3945-0.76562 1.3945-1.5625 0-0.80078-0.60156-1.4727-1.3945-1.5625zm30.258 34.668c-3.1523 0.80859-5.3438 3.6719-5.3008 6.9258-0.10547 1.875 0.56641 3.707 1.8555 5.0664 1.2891 1.3633 3.082 2.1328 4.957 2.1328s3.668-0.76953 4.957-2.1328c1.2891-1.3594 1.9609-3.1914 1.8555-5.0664 0.042969-3.2539-2.1484-6.1172-5.3008-6.9258v-12.5c0-0.83594-0.67578-1.5117-1.5117-1.5117s-1.5117 0.67578-1.5117 1.5117zm33.332-31.52h0.003907c0.63672 3.1758 3.4023 5.4805 6.6445 5.5312 3.7734-0.20703 6.7305-3.3242 6.7305-7.1055s-2.957-6.8984-6.7305-7.1055c-3.2422 0.050781-6.0078 2.3555-6.6445 5.5312h-12.031c-0.79297 0.09375-1.3945 0.76562-1.3945 1.5625 0 0.80078 0.60156 1.4727 1.3945 1.5625zm-30.207-34.668c3.1562-0.80859 5.3477-3.6719 5.3047-6.9258 0.10156-1.875-0.57031-3.707-1.8594-5.0664-1.2891-1.3633-3.0781-2.1328-4.9531-2.1328s-3.668 0.76953-4.957 2.1328c-1.2891 1.3594-1.9609 3.1914-1.8555 5.0664-0.046875 3.2539 2.1445 6.1172 5.3008 6.9258v12.5c0 0.83594 0.67578 1.5117 1.5117 1.5117 0.83203 0 1.5078-0.67578 1.5078-1.5117zm12.242 23.719-13.855 5.0938-13.855-5.0938v18.832c-0.011719 0.41406 0.24219 0.78516 0.625 0.92969l12.918 4.7305v-0.003907c0.19922 0.085938 0.42578 0.085938 0.625 0l12.918-4.6953c0.38281-0.14453 0.63672-0.51562 0.625-0.92969z" fill-rule="evenodd"/>
<text x="0.0" y="117.5" font-size="5.0" font-weight="bold" font-family="Arbeit Regular, Helvetica, Arial-Unicode, Arial, Sans-serif" fill="#000000">Created by mieestore</text><text x="0.0" y="122.5" font-size="5.0" font-weight="bold" font-family="Arbeit Regular, Helvetica, Arial-Unicode, Arial, Sans-serif" fill="#000000">from Noun Project</text></svg>